<?xml version="1.0" encoding="UTF-8"?>
<svg version="1.1" xmlns="http://www.w3.org/2000/svg" width="147" height="147">
<path d="M0 0 C48.51 0 97.02 0 147 0 C147 48.51 147 97.02 147 147 C98.49 147 49.98 147 0 147 C0 98.49 0 49.98 0 0 Z " fill="#FBFDFE" transform="translate(0,0)"/>
<path d="M0 0 C3.33325754 -0.05874776 6.66637938 -0.09384467 10 -0.125 C10.93457031 -0.14175781 11.86914062 -0.15851563 12.83203125 -0.17578125 C30.09240043 -0.29648313 46.29670037 7.32153712 58.625 19.25 C61.9056899 22.59990277 64 25.19804287 64 30 C64.556875 30.185625 65.11375 30.37125 65.6875 30.5625 C72.31030744 34.6793803 75.10712976 42.79198102 77 50 C77.54438309 54.74366308 77.57354332 59.41688577 77.5 64.1875 C77.48428955 65.47108398 77.4685791 66.75466797 77.45239258 68.07714844 C76.98995994 88.08971276 70.81141743 103.06344168 57 117.625 C52.11790538 122.18162165 46.79818375 125.71669113 41 129 C40.2884375 129.4228125 39.576875 129.845625 38.84375 130.28125 C33.99790058 132.97338857 29.51105213 133.7448587 24 134 C25.54236156 130.91527688 28.14461198 130.46129262 31.25 129.0625 C39.26824762 125.2762496 45.5355326 119.99658128 52 114 C52.61101562 113.46246094 53.22203125 112.92492187 53.8515625 112.37109375 C55.73327944 110.12455413 55.1865618 107.79842702 55 105 C53.1648727 104.28630168 53.1648727 104.28630168 51 104 C48.52244034 105.73098032 46.33162737 107.46384248 44.0625 109.4375 C34.90548642 117.06149918 25.24628239 122.97047919 14.625 128.375 C13.97088135 128.70918945 13.3167627 129.04337891 12.64282227 129.38769531 C8.50022256 131.43761979 4.47909468 132.85418508 0 134 C0.71542969 133.28585938 1.43085937 132.57171875 2.16796875 131.8359375 C3.99009056 130.01445661 5.80363867 128.18555004 7.61328125 126.3515625 C8.50402344 125.45179688 9.39476562 124.55203125 10.3125 123.625 C11.19550781 122.73039062 12.07851562 121.83578125 12.98828125 120.9140625 C15.16836517 118.75766308 17.43331455 116.73779634 19.7578125 114.73828125 C24.57633423 110.56135461 29.06584747 106.08068478 33.5625 101.5625 C34.37396484 100.75490234 35.18542969 99.94730469 36.02148438 99.11523438 C42.56767097 92.55848089 48.68572731 85.76539708 54.4375 78.5 C55.11683594 77.6440625 55.79617187 76.788125 56.49609375 75.90625 C56.99238281 75.2771875 57.48867187 74.648125 58 74 C54.54403107 71.69602072 52.66571226 71.14994771 48.57421875 71.2421875 C43.93121081 72.6090214 41.19385703 76.39768331 38.0078125 79.859375 C32.9632793 85.28885931 26.91928981 89.57950991 21 94 C20.42878418 94.43199707 19.85756836 94.86399414 19.26904297 95.30908203 C10.87089795 101.63586042 2.14871052 107.04943673 -7.12646484 111.99804688 C-8.88055735 112.93612293 -10.62242817 113.89695216 -12.36328125 114.859375 C-18.3933613 118.07746092 -23.1471522 119.77157174 -30 120 C-28.8717446 118.8717446 -27.74312686 117.74385044 -26.61328125 116.6171875 C-25.4597124 115.46082551 -24.31190691 114.29870256 -23.16796875 113.1328125 C-22.51441406 112.47023438 -21.86085937 111.80765625 -21.1875 111.125 C-20.58292969 110.50882812 -19.97835937 109.89265625 -19.35546875 109.2578125 C-17.36988913 107.35455376 -15.34589942 105.56171166 -13.26171875 103.76953125 C-8.04803309 99.24094824 -3.28020153 94.29721301 1.52734375 89.34570312 C2.20667969 88.65541016 2.88601562 87.96511719 3.5859375 87.25390625 C4.1948584 86.62814697 4.8037793 86.0023877 5.43115234 85.35766602 C7 84 7 84 9 84 C9.21785156 83.45085937 9.43570313 82.90171875 9.66015625 82.3359375 C11.43278704 79.24546166 13.87375099 77.04817581 16.4375 74.625 C22.992205 68.24969945 28.51238531 61.29413498 34 54 C34.8600109 52.87318916 35.72067452 51.74687615 36.58203125 50.62109375 C39.95159634 46.18459044 43.20681106 41.82697963 46 37 C36.01121282 36.37259972 36.01121282 36.37259972 26.921875 39.4609375 C25.5770032 41.38539442 25.5770032 41.38539442 24.40234375 43.57421875 C13.25769875 62.85228154 -13.74855022 76.73852425 -33.0625 86.0625 C-34.20404541 86.6179248 -34.20404541 86.6179248 -35.36865234 87.18457031 C-40.47382127 89.56213639 -45.46163844 90.99889436 -51 92 C-48.22277142 88.29269253 -45.32877115 85.47827329 -41.6875 82.625 C-37.80753543 79.51691167 -34.21119372 76.35217947 -30.77099609 72.76977539 C-29.06655928 71.0665134 -27.30461857 69.50878032 -25.46875 67.94921875 C-20.16057336 63.33171968 -15.16472325 58.40656335 -10.1875 53.4375 C-9.70266144 52.95400085 -9.21782288 52.47050171 -8.71829224 51.97235107 C-1.18214017 44.43168587 5.86549387 36.73957038 12 28 C12.81791016 26.83984375 12.81791016 26.83984375 13.65234375 25.65625 C16.52525639 21.32606283 18.33220866 16.91559554 20 12 C15.38 12.33 10.76 12.66 6 13 C5.34 14.65 4.68 16.3 4 18 C-4.91717526 32.63451982 -17.92001911 41.97789649 -32.8125 49.9375 C-33.49296387 50.30278809 -34.17342773 50.66807617 -34.87451172 51.04443359 C-47.34667821 57.49908877 -47.34667821 57.49908877 -52.26489258 56.57397461 C-52.83747803 56.38456299 -53.41006348 56.19515137 -54 56 C-52.58460937 54.78376953 -52.58460937 54.78376953 -51.140625 53.54296875 C-42.96489868 46.50017215 -34.83750081 39.42053033 -27 32 C-26.46681152 31.49549316 -25.93362305 30.99098633 -25.38427734 30.47119141 C-23.74510527 28.90848499 -22.12040075 27.33214508 -20.5 25.75 C-20.00733643 25.27876709 -19.51467285 24.80753418 -19.00708008 24.32202148 C-14.36006442 19.71835335 -10.80354552 14.6292505 -10 8 C-12.64 8.33 -15.28 8.66 -18 9 C-14.41062544 5.0572101 -10.1206669 3.430239 -4.875 2.70703125 C-1.53129364 2.57404293 0.54357705 2.67927036 3.3125 4.625 C7.79186426 6.91676776 12.27292779 5.15072336 17 4 C13.46813168 1.84940691 10.33712007 1.6202272 6.25 1.375 C4.49429688 1.26285156 4.49429688 1.26285156 2.703125 1.1484375 C1.81109375 1.09945313 0.9190625 1.05046875 0 1 C0 0.67 0 0.34 0 0 Z " fill="#06ADEE" transform="translate(64,4)"/>
<path d="M0 0 C3.33325754 -0.05874776 6.66637938 -0.09384467 10 -0.125 C10.93457031 -0.14175781 11.86914062 -0.15851563 12.83203125 -0.17578125 C20.46705325 -0.22917301 26.77244774 1.14052891 34 3.625 C34.763125 3.88539062 35.52625 4.14578125 36.3125 4.4140625 C36.869375 4.60742188 37.42625 4.80078125 38 5 C37.34 5.66 36.68 6.32 36 7 C36.61273076 9.00620657 36.61273076 9.00620657 38 11 C40.55946179 12.099216 40.55946179 12.099216 43.5 12.6875 C48.93532338 13.96766169 48.93532338 13.96766169 51 15 C51 18.3 51 21.6 51 25 C46.05 25 41.1 25 36 25 C35.67 26.32 35.34 27.64 35 29 C30.751205 36.91590974 25.22373167 43.57419912 19 50 C18.48348877 50.53915039 17.96697754 51.07830078 17.43481445 51.63378906 C3.19887966 66.23784256 -14.79596872 77.24417456 -33.0625 86.0625 C-34.20404541 86.6179248 -34.20404541 86.6179248 -35.36865234 87.18457031 C-40.47382127 89.56213639 -45.46163844 90.99889436 -51 92 C-48.22277142 88.29269253 -45.32877115 85.47827329 -41.6875 82.625 C-37.80753543 79.51691167 -34.21119372 76.35217947 -30.77099609 72.76977539 C-29.06655928 71.0665134 -27.30461857 69.50878032 -25.46875 67.94921875 C-20.16057336 63.33171968 -15.16472325 58.40656335 -10.1875 53.4375 C-9.70266144 52.95400085 -9.21782288 52.47050171 -8.71829224 51.97235107 C-1.18214017 44.43168587 5.86549387 36.73957038 12 28 C12.81791016 26.83984375 12.81791016 26.83984375 13.65234375 25.65625 C16.52525639 21.32606283 18.33220866 16.91559554 20 12 C15.38 12.33 10.76 12.66 6 13 C5.34 14.65 4.68 16.3 4 18 C-4.91717526 32.63451982 -17.92001911 41.97789649 -32.8125 49.9375 C-33.49296387 50.30278809 -34.17342773 50.66807617 -34.87451172 51.04443359 C-47.34667821 57.49908877 -47.34667821 57.49908877 -52.26489258 56.57397461 C-52.83747803 56.38456299 -53.41006348 56.19515137 -54 56 C-52.58460937 54.78376953 -52.58460937 54.78376953 -51.140625 53.54296875 C-42.96489868 46.50017215 -34.83750081 39.42053033 -27 32 C-26.46681152 31.49549316 -25.93362305 30.99098633 -25.38427734 30.47119141 C-23.74510527 28.90848499 -22.12040075 27.33214508 -20.5 25.75 C-20.00733643 25.27876709 -19.51467285 24.80753418 -19.00708008 24.32202148 C-14.36006442 19.71835335 -10.80354552 14.6292505 -10 8 C-12.64 8.33 -15.28 8.66 -18 9 C-14.41062544 5.0572101 -10.1206669 3.430239 -4.875 2.70703125 C-1.53129364 2.57404293 0.54357705 2.67927036 3.3125 4.625 C7.79186426 6.91676776 12.27292779 5.15072336 17 4 C13.46813168 1.84940691 10.33712007 1.6202272 6.25 1.375 C4.49429688 1.26285156 4.49429688 1.26285156 2.703125 1.1484375 C1.81109375 1.09945313 0.9190625 1.05046875 0 1 C0 0.67 0 0.34 0 0 Z " fill="#07AEEE" transform="translate(64,4)"/>
<path d="M0 0 C3.95820859 0.56545837 6.6659053 1.80902348 10 4 C10.33 2.68 10.66 1.36 11 0 C17.73009936 12.01420921 15.37449857 31.64429621 12.6875 44.75 C7.24952211 62.54352484 -6.07240165 76.98075756 -22 86 C-22.7115625 86.4228125 -23.423125 86.845625 -24.15625 87.28125 C-29.00209942 89.97338857 -33.48894787 90.7448587 -39 91 C-37.45763844 87.91527688 -34.85538802 87.46129262 -31.75 86.0625 C-23.73175238 82.2762496 -17.4644674 76.99658128 -11 71 C-10.38898438 70.46246094 -9.77796875 69.92492187 -9.1484375 69.37109375 C-7.26672056 67.12455413 -7.8134382 64.79842702 -8 62 C-9.8351273 61.28630168 -9.8351273 61.28630168 -12 61 C-14.47755966 62.73098032 -16.66837263 64.46384248 -18.9375 66.4375 C-28.09451358 74.06149918 -37.75371761 79.97047919 -48.375 85.375 C-49.02911865 85.70918945 -49.6832373 86.04337891 -50.35717773 86.38769531 C-54.49977744 88.43761979 -58.52090532 89.85418508 -63 91 C-61.92685547 89.92878906 -61.92685547 89.92878906 -60.83203125 88.8359375 C-59.00990944 87.01445661 -57.19636133 85.18555004 -55.38671875 83.3515625 C-54.05060547 82.00191406 -54.05060547 82.00191406 -52.6875 80.625 C-51.36298828 79.28308594 -51.36298828 79.28308594 -50.01171875 77.9140625 C-47.83163483 75.75766308 -45.56668545 73.73779634 -43.2421875 71.73828125 C-38.42366577 67.56135461 -33.93415253 63.08068478 -29.4375 58.5625 C-28.62603516 57.75490234 -27.81457031 56.94730469 -26.97851562 56.11523438 C-20.43232903 49.55848089 -14.31427269 42.76539708 -8.5625 35.5 C-7.88316406 34.6440625 -7.20382813 33.788125 -6.50390625 32.90625 C-6.00761719 32.2771875 -5.51132813 31.648125 -5 31 C-5.495 30.01 -5.495 30.01 -6 29 C-5.40703125 28.93941406 -4.8140625 28.87882812 -4.203125 28.81640625 C-1.05612001 27.65022887 -0.35879511 25.82601849 1.25 22.9375 C1.77078125 22.01839844 2.2915625 21.09929687 2.828125 20.15234375 C3.21484375 19.44207031 3.6015625 18.73179688 4 18 C1.3144406 15.3144406 -1.37621328 14.93950026 -5 14 C-3.46527032 9.27775484 -1.76054874 4.64144669 0 0 Z " fill="#0AAEEE" transform="translate(127,47)"/>
<path d="M0 0 C0.76441406 0.51046875 1.52882812 1.0209375 2.31640625 1.546875 C5.78426512 3.42466758 7.87245469 3.08995453 11.75 2.625 C13.83016825 2.38713323 15.91326627 2.17094711 18 2 C19 3 19 3 19 9 C14.38 9.33 9.76 9.66 5 10 C4.34 11.65 3.68 13.3 3 15 C-5.91717526 29.63451982 -18.92001911 38.97789649 -33.8125 46.9375 C-34.49296387 47.30278809 -35.17342773 47.66807617 -35.87451172 48.04443359 C-48.34667821 54.49908877 -48.34667821 54.49908877 -53.26489258 53.57397461 C-53.83747803 53.38456299 -54.41006348 53.19515137 -55 53 C-53.58460937 51.78376953 -53.58460937 51.78376953 -52.140625 50.54296875 C-43.96489868 43.50017215 -35.83750081 36.42053033 -28 29 C-27.46681152 28.49549316 -26.93362305 27.99098633 -26.38427734 27.47119141 C-24.74510527 25.90848499 -23.12040075 24.33214508 -21.5 22.75 C-21.00733643 22.27876709 -20.51467285 21.80753418 -20.00708008 21.32202148 C-15.36006442 16.71835335 -11.80354552 11.6292505 -11 5 C-13.64 5.33 -16.28 5.66 -19 6 C-13.95207036 0.45504345 -7.22012438 -0.71017617 0 0 Z " fill="#0AAFEF" transform="translate(65,7)"/>
<path d="M0 0 C0.33 0 0.66 0 1 0 C2.56683709 18.10567301 -5.25534377 32.57059348 -16.5546875 46.046875 C-22.02644061 51.81581598 -28.10139273 56.09355974 -35 60 C-36.06734375 60.63421875 -36.06734375 60.63421875 -37.15625 61.28125 C-42.00209942 63.97338857 -46.48894787 64.7448587 -52 65 C-50.45763844 61.91527688 -47.85538802 61.46129262 -44.75 60.0625 C-36.73175238 56.2762496 -30.4644674 50.99658128 -24 45 C-23.3915625 44.45730469 -22.783125 43.91460937 -22.15625 43.35546875 C-20.71188736 41.92069456 -20.71188736 41.92069456 -20.6875 39.0625 C-20.84621325 35.71739557 -20.84621325 35.71739557 -23 32 C-19.535 28.535 -19.535 28.535 -16 25 C-13.69 25.66 -11.38 26.32 -9 27 C-5.18929645 22.90745613 -5.18929645 22.90745613 -3.99609375 17.70703125 C-4.24780626 16.15783155 -4.51335517 14.61081395 -4.79296875 13.06640625 C-5.10175999 9.98432006 -3.77997622 8.43922667 -2 6 C-1.28856912 4.01548229 -0.61008664 2.01797888 0 0 Z " fill="#0FAEEE" transform="translate(140,73)"/>
<path d="M0 0 C-1.46366616 7.65871825 -7.92457068 13.55520539 -14 18 C-20.13664596 22 -20.13664596 22 -23 22 C-22.69859774 15.97195486 -19.97491614 12.29119979 -16 8 C-11.12462219 3.75159016 -6.62911559 0 0 0 Z " fill="#10B1EF" transform="translate(38,16)"/>
<path d="M0 0 C7.625 0.625 7.625 0.625 11 4 C8.69 7.63 6.38 11.26 4 15 C-2.93 14.505 -2.93 14.505 -10 14 C-6.86427316 9.17580486 -3.4851448 4.57715684 0 0 Z " fill="#2D3595" transform="translate(121,61)"/>
<path d="M0 0 C4.62 0 9.24 0 14 0 C12.125 8.625 12.125 8.625 11 12 C5.39 12 -0.22 12 -6 12 C-4.02 8.04 -2.04 4.08 0 0 Z " fill="#2C3494" transform="translate(100,29)"/>
<path d="M0 0 C8.5 0.75 8.5 0.75 13 3 C13 6.3 13 9.6 13 13 C8.38 13 3.76 13 -1 13 C-0.67 8.71 -0.34 4.42 0 0 Z " fill="#EAF2F9" transform="translate(102,16)"/>
<path d="M0 0 C3.7595188 0.52215539 6.36771463 1.17273053 9 4 C9.74838855 8.81106927 8.37188193 11.84920663 6 16 C-1.42857143 15 -1.42857143 15 -5 14 C-3.46527032 9.27775484 -1.76054874 4.64144669 0 0 Z " fill="#EAF6FC" transform="translate(127,47)"/>
<path d="M0 0 C4.64590164 1.4295082 4.64590164 1.4295082 6.125 3.8125 C6 6 6 6 3.875 8.4375 C2.451875 9.7059375 2.451875 9.7059375 1 11 C0.071875 11.928125 -0.85625 12.85625 -1.8125 13.8125 C-2.534375 14.534375 -3.25625 15.25625 -4 16 C-5.31626692 12.38026598 -6 9.90432869 -6 6 C-4.6875 4.296875 -4.6875 4.296875 -3 2.75 C-2.1646875 1.96882813 -2.1646875 1.96882813 -1.3125 1.171875 C-0.879375 0.78515625 -0.44625 0.3984375 0 0 Z " fill="#303C99" transform="translate(124,98)"/>
<path d="M0 0 C1 1 1 1 1 7 C-3.62 7.33 -8.24 7.66 -13 8 C-13 6.02 -13 4.04 -13 2 C-8.49346274 0.55790808 -4.79124078 -0.34223148 0 0 Z " fill="#38439D" transform="translate(83,9)"/>
<path d="M0 0 C0.66 0 1.32 0 2 0 C3.68710359 6.74841438 3.68710359 6.74841438 1.73046875 10.3125 C0.22438979 12.28768553 -1.32105749 14.17019599 -3 16 C-5.475 15.01 -5.475 15.01 -8 14 C-8 9.99721935 -6.47550007 8.51202411 -4.125 5.3125 C-3.04605469 3.82169922 -3.04605469 3.82169922 -1.9453125 2.30078125 C-1.30335938 1.54152344 -0.66140625 0.78226562 0 0 Z " fill="#E4F3FB" transform="translate(134,85)"/>
<path d="M0 0 C4.18290487 1.88054967 5.85898865 3.87090668 8 8 C8.31827037 10.76497381 8.19294027 13.20236613 8 16 C4.63480334 14.81763361 2.17288063 13.88033014 0 11 C-0.29296875 8.30078125 -0.29296875 8.30078125 -0.1875 5.3125 C-0.16042969 4.31863281 -0.13335937 3.32476562 -0.10546875 2.30078125 C-0.07066406 1.54152344 -0.03585938 0.78226563 0 0 Z " fill="#39489F" transform="translate(129,35)"/>
<path d="M0 0 C0.70769531 0.03158203 1.41539063 0.06316406 2.14453125 0.09570312 C6.55199867 0.37886444 9.58931304 1.12953754 13.125 3.8125 C13.125 4.1425 13.125 4.4725 13.125 4.8125 C9.13544687 5.7542127 5.22184668 6.55980736 1.125 6.8125 C-1.6875 5 -1.6875 5 -3.875 2.8125 C-7.564748 2.01027849 -7.564748 2.01027849 -10.875 1.8125 C-7.09409307 -0.70810462 -4.334484 -0.3084903 0 0 Z " fill="#DFF1FA" transform="translate(68.875,4.1875)"/>
<path d="M0 0 C6.13769283 0.37577711 9.26963644 2.0419407 14 6 C14 6.66 14 7.32 14 8 C10.23022846 7.62878311 6.61637152 7.15211836 3 6 C0.8125 2.875 0.8125 2.875 0 0 Z " fill="#313D9A" transform="translate(99,10)"/>
<path d="M0 0 C0.33 0 0.66 0 1 0 C1.18451025 10.55808656 1.18451025 10.55808656 0 15 C-0.99 15.33 -1.98 15.66 -3 16 C-4.1875 13.8125 -4.1875 13.8125 -5 11 C-3.75 8.5625 -3.75 8.5625 -2 6 C-1.28856912 4.01548229 -0.61008664 2.01797888 0 0 Z " fill="#2F449F" transform="translate(140,73)"/>
<path d="M0 0 C0.99 0.66 1.98 1.32 3 2 C2.46148032 7.27749285 1.22656164 11.25645564 -1 16 C-4 16 -4 16 -7 15 C-6.21625 14.236875 -5.4325 13.47375 -4.625 12.6875 C-0.70897945 8.69245483 -0.70897945 8.69245483 0.125 3.3125 C0.08375 2.219375 0.0425 1.12625 0 0 Z " fill="#4FA7DF" transform="translate(136,86)"/>
<path d="M0 0 C0.66 0.33 1.32 0.66 2 1 C1.28972656 1.69867188 0.57945313 2.39734375 -0.15234375 3.1171875 C-1.07144531 4.02726562 -1.99054687 4.93734375 -2.9375 5.875 C-3.85402344 6.77992187 -4.77054688 7.68484375 -5.71484375 8.6171875 C-8.01187627 10.77682255 -8.01187627 10.77682255 -9 13 C-10.32 12.67 -11.64 12.34 -13 12 C-8.71 8.04 -4.42 4.08 0 0 Z " fill="#2BB9F1" transform="translate(47,111)"/>
<path d="M0 0 C0.66 0.33 1.32 0.66 2 1 C1.4225 1.55429688 0.845 2.10859375 0.25 2.6796875 C-0.4925 3.40414062 -1.235 4.12859375 -2 4.875 C-2.7425 5.59429687 -3.485 6.31359375 -4.25 7.0546875 C-6.22293325 8.81170957 -6.22293325 8.81170957 -6 11 C-7.98 11.33 -9.96 11.66 -12 12 C-8.57833482 7.29521038 -4.42094803 3.72346836 0 0 Z " fill="#2EBAF1" transform="translate(25,84)"/>
<path d="M0 0 C6.93 0 13.86 0 21 0 C19.68 0.33 18.36 0.66 17 1 C17 1.66 17 2.32 17 3 C16.21882813 2.76990234 16.21882813 2.76990234 15.421875 2.53515625 C12.36721485 1.86017489 9.36984029 1.65588882 6.25 1.4375 C5.07953125 1.35371094 3.9090625 1.26992187 2.703125 1.18359375 C1.81109375 1.12300781 0.9190625 1.06242188 0 1 C0 0.67 0 0.34 0 0 Z " fill="#23B7F0" transform="translate(64,4)"/>
<path d="M0 0 C0.66 0.33 1.32 0.66 2 1 C0.71451591 2.33929505 -0.57858155 3.67128643 -1.875 5 C-2.59429688 5.7425 -3.31359375 6.485 -4.0546875 7.25 C-6 9 -6 9 -8 9 C-6.4169423 4.7257442 -3.49431596 2.73468206 0 0 Z " fill="#2DB9F1" transform="translate(27,20)"/>
<path d="M0 0 C0.66 0.33 1.32 0.66 2 1 C-0.31 3.64 -2.62 6.28 -5 9 C-6.32 8.67 -7.64 8.34 -9 8 C-6.03 5.36 -3.06 2.72 0 0 Z " fill="#25B6F0" transform="translate(19,52)"/>
<path d="M0 0 C0 0.99 0 1.98 0 3 C-4.455 3.495 -4.455 3.495 -9 4 C-8 2 -8 2 -5.625 0.875 C-3 0 -3 0 0 0 Z " fill="#4AC2F3" transform="translate(97,134)"/>
<path d="M0 0 C0 1.65 0 3.3 0 5 C-3.01031744 5.93423645 -3.86650268 6.04449911 -7 5 C-2.25 0 -2.25 0 0 0 Z " fill="#3FBDF0" transform="translate(136,96)"/>
</svg>
